<?xml version="1.0" standalone="no"?>
<!DOCTYPE svg PUBLIC "-//W3C//DTD SVG 20010904//EN"
 "http://www.w3.org/TR/2001/REC-SVG-20010904/DTD/svg10.dtd">
<svg version="1.0" xmlns="http://www.w3.org/2000/svg"
 width="158.000000pt" height="158.000000pt" viewBox="0 0 158.000000 158.000000"
 preserveAspectRatio="xMidYMid meet">
<metadata>
Created by potrace 1.11, written by Peter Selinger 2001-2013
</metadata>
<g transform="translate(0.000000,158.000000) scale(0.100000,-0.100000)"
fill="#000000" stroke="none">
<path d="M685 1360 c-3 -5 -11 -7 -19 -4 -7 3 -26 -1 -42 -7 -16 -7 -31 -13
-34 -13 -44 -9 -200 -107 -200 -127 0 -5 -5 -9 -11 -9 -21 0 -124 -142 -112
-154 4 -3 1 -6 -5 -6 -9 0 -29 -51 -32 -82 0 -4 -7 -25 -14 -45 -14 -42 -15
-220 -1 -243 5 -8 10 -25 11 -38 2 -13 10 -32 18 -41 9 -10 13 -20 10 -24 -3
-3 3 -19 15 -35 12 -17 21 -35 21 -41 0 -6 4 -11 8 -11 5 0 17 -16 28 -35 10
-19 21 -35 24 -35 4 0 27 -20 52 -44 25 -24 68 -54 94 -67 27 -13 52 -28 55
-32 3 -4 10 -7 15 -6 5 1 22 -3 37 -9 15 -7 42 -15 60 -18 41 -9 194 -9 227
-1 14 3 36 8 49 11 12 3 29 10 35 16 7 5 16 7 19 3 4 -3 17 2 29 13 12 10 18
13 13 5 -5 -9 2 -7 18 5 15 10 27 23 27 27 0 5 4 6 9 3 4 -3 35 18 67 46 131
115 197 258 199 433 1 112 -9 154 -62 261 -37 74 -100 149 -168 199 -48 36
-125 78 -125 69 0 -4 -6 -2 -12 4 -36 29 -288 56 -303 32z"/>
</g>
</svg>
